<?xml version="1.0" standalone="no"?>
 <!DOCTYPE svg PUBLIC "-//W3C//DTD SVG 1.1//EN" 
 "http://www.w3.org/Graphics/SVG/1.1/DTD/svg11.dtd"> 
<svg xmlns="http://www.w3.org/2000/svg" version="1.1" 
    width="21.0007cm" height="29.7002cm" viewBox="0 0 82680 116930 ">
<title>SVG Picture created as uln2803-driver--brd.svg date 2014/11/01 20:28:13 </title>
  <desc>Picture generated by PCBNEW </desc>
<g style="fill:#000000; fill-opacity:1;stroke:#000000; stroke-opacity:1;
stroke-linecap:round; stroke-linejoin:round; "
 transform="translate(0 0) scale(1 1)">
</g>
<g style="fill:#000000; fill-opacity:0.0; 
stroke:#000000; stroke-width:19.685; stroke-opacity:1; 
stroke-linecap:round; stroke-linejoin:round;">
<path d="M4000 4000
L78680 4000
L78680 112930
L4000 112930
L4000 4000
" />
<path d="M4700 4700
L77980 4700
L77980 112230
L4700 112230
L4700 4700
" />
<path d="M28890 4000
L28890 4700
" />
<path d="M16592 4552
L16307 4552
" />
<path d="M16450 4552
L16450 4052
L16402 4123
L16354 4171
L16307 4195
" />
<path d="M28890 112930
L28890 112230
" />
<path d="M16592 112782
L16307 112782
" />
<path d="M16450 112782
L16450 112282
L16402 112353
L16354 112401
L16307 112425
" />
<path d="M53780 4000
L53780 4700
" />
<path d="M41197 4100
L41220 4076
L41268 4052
L41387 4052
L41435 4076
L41459 4100
L41482 4147
L41482 4195
L41459 4266
L41173 4552
L41482 4552
" />
<path d="M53780 112930
L53780 112230
" />
<path d="M41197 112330
L41220 112306
L41268 112282
L41387 112282
L41435 112306
L41459 112330
L41482 112377
L41482 112425
L41459 112496
L41173 112782
L41482 112782
" />
<path d="M66063 4052
L66372 4052
L66206 4242
L66277 4242
L66325 4266
L66349 4290
L66372 4338
L66372 4457
L66349 4504
L66325 4528
L66277 4552
L66134 4552
L66087 4528
L66063 4504
" />
<path d="M66063 112282
L66372 112282
L66206 112472
L66277 112472
L66325 112496
L66349 112520
L66372 112568
L66372 112687
L66349 112734
L66325 112758
L66277 112782
L66134 112782
L66087 112758
L66063 112734
" />
<path d="M4000 25780
L4700 25780
" />
<path d="M4230 14949
L4469 14949
" />
<path d="M4183 15092
L4350 14592
L4516 15092
" />
<path d="M78680 25780
L77980 25780
" />
<path d="M78210 14949
L78449 14949
" />
<path d="M78163 15092
L78330 14592
L78496 15092
" />
<path d="M4000 47560
L4700 47560
" />
<path d="M4385 36610
L4457 36634
L4480 36658
L4504 36705
L4504 36777
L4480 36824
L4457 36848
L4409 36872
L4219 36872
L4219 36372
L4385 36372
L4433 36396
L4457 36420
L4480 36467
L4480 36515
L4457 36562
L4433 36586
L4385 36610
L4219 36610
" />
<path d="M78680 47560
L77980 47560
" />
<path d="M78365 36610
L78437 36634
L78460 36658
L78484 36705
L78484 36777
L78460 36824
L78437 36848
L78389 36872
L78199 36872
L78199 36372
L78365 36372
L78413 36396
L78437 36420
L78460 36467
L78460 36515
L78437 36562
L78413 36586
L78365 36610
L78199 36610
" />
<path d="M4000 69340
L4700 69340
" />
<path d="M4504 58604
L4480 58628
L4409 58652
L4361 58652
L4290 58628
L4242 58580
L4219 58533
L4195 58438
L4195 58366
L4219 58271
L4242 58223
L4290 58176
L4361 58152
L4409 58152
L4480 58176
L4504 58200
" />
<path d="M78680 69340
L77980 69340
" />
<path d="M78484 58604
L78460 58628
L78389 58652
L78341 58652
L78270 58628
L78222 58580
L78199 58533
L78175 58438
L78175 58366
L78199 58271
L78222 58223
L78270 58176
L78341 58152
L78389 58152
L78460 58176
L78484 58200
" />
<path d="M4000 91120
L4700 91120
" />
<path d="M4219 80432
L4219 79932
L4338 79932
L4409 79956
L4457 80003
L4480 80051
L4504 80146
L4504 80218
L4480 80313
L4457 80360
L4409 80408
L4338 80432
L4219 80432
" />
<path d="M78680 91120
L77980 91120
" />
<path d="M78199 80432
L78199 79932
L78318 79932
L78389 79956
L78437 80003
L78460 80051
L78484 80146
L78484 80218
L78460 80313
L78437 80360
L78389 80408
L78318 80432
L78199 80432
" />
<path d="M4242 101950
L4409 101950
" />
<path d="M4480 102212
L4242 102212
L4242 101712
L4480 101712
" />
<path d="M78222 101950
L78389 101950
" />
<path d="M78460 102212
L78222 102212
L78222 101712
L78460 101712
" />
<path d="M45130 110672
L45205 110072
L45347 110072
L45430 110101
L45480 110158
L45501 110215
L45515 110330
L45505 110415
L45462 110530
L45426 110587
L45362 110644
L45272 110672
L45130 110672
" />
<path d="M45987 110672
L46026 110358
L46005 110301
L45951 110272
L45837 110272
L45776 110301
" />
<path d="M45990 110644
L45930 110672
L45787 110672
L45733 110644
L45712 110587
L45719 110530
L45755 110472
L45815 110444
L45958 110444
L46019 110415
" />
<path d="M46237 110272
L46465 110272
" />
<path d="M46347 110072
L46283 110587
L46305 110644
L46358 110672
L46415 110672
" />
<path d="M46847 110644
L46787 110672
L46672 110672
L46619 110644
L46597 110587
L46626 110358
L46662 110301
L46722 110272
L46837 110272
L46890 110301
L46912 110358
L46905 110415
L46612 110472
" />
<path d="M47137 110615
L47162 110644
L47130 110672
L47105 110644
L47137 110615
L47130 110672
" />
<path d="M47176 110301
L47201 110330
L47169 110358
L47144 110330
L47176 110301
L47169 110358
" />
<path d="M48187 110672
L47844 110672
" />
<path d="M48015 110672
L48090 110072
L48022 110158
L47958 110215
L47897 110244
" />
<path d="M48951 110272
L48901 110672
" />
<path d="M48944 110330
L48976 110301
L49037 110272
L49122 110272
L49176 110301
L49197 110358
L49158 110672
" />
<path d="M49530 110672
L49476 110644
L49451 110615
L49430 110558
L49451 110387
L49487 110330
L49519 110301
L49580 110272
L49665 110272
L49719 110301
L49744 110330
L49765 110387
L49744 110558
L49708 110615
L49676 110644
L49615 110672
L49530 110672
" />
<path d="M49980 110272
L50072 110672
L50265 110272
" />
<path d="M50940 110130
L50972 110101
L51033 110072
L51176 110072
L51230 110101
L51255 110130
L51276 110187
L51269 110244
L51230 110330
L50844 110672
L51215 110672
" />
<path d="M51662 110072
L51719 110072
L51772 110101
L51797 110130
L51819 110187
L51833 110301
L51815 110444
L51772 110558
L51737 110615
L51705 110644
L51644 110672
L51587 110672
L51533 110644
L51508 110615
L51487 110558
L51472 110444
L51490 110301
L51533 110187
L51569 110130
L51601 110101
L51662 110072
" />
<path d="M52358 110672
L52015 110672
" />
<path d="M52187 110672
L52262 110072
L52194 110158
L52130 110215
L52069 110244
" />
<path d="M52922 110272
L52872 110672
" />
<path d="M52808 110044
L52612 110472
L52983 110472
" />
<path d="M36722 111872
L36722 111272
" />
<path d="M37065 111872
L36808 111530
" />
<path d="M37065 111272
L36722 111615
" />
<path d="M37322 111872
L37322 111472
" />
<path d="M37322 111272
L37294 111301
L37322 111330
L37351 111301
L37322 111272
L37322 111330
" />
<path d="M37951 111815
L37922 111844
L37837 111872
L37780 111872
L37694 111844
L37637 111787
L37608 111730
L37580 111615
L37580 111530
L37608 111415
L37637 111358
L37694 111301
L37780 111272
L37837 111272
L37922 111301
L37951 111330
" />
<path d="M38465 111872
L38465 111558
L38437 111501
L38380 111472
L38265 111472
L38208 111501
" />
<path d="M38465 111844
L38408 111872
L38265 111872
L38208 111844
L38180 111787
L38180 111730
L38208 111672
L38265 111644
L38408 111644
L38465 111615
" />
<path d="M39008 111872
L39008 111272
" />
<path d="M39008 111844
L38951 111872
L38837 111872
L38780 111844
L38751 111815
L38722 111758
L38722 111587
L38751 111530
L38780 111501
L38837 111472
L38951 111472
L39008 111501
" />
<path d="M39751 111558
L39951 111558
" />
<path d="M40037 111872
L39751 111872
L39751 111272
L40037 111272
" />
<path d="M40294 111815
L40322 111844
L40294 111872
L40265 111844
L40294 111815
L40294 111872
" />
<path d="M40579 111872
L40579 111272
L40722 111272
L40808 111301
L40865 111358
L40894 111415
L40922 111530
L40922 111615
L40894 111730
L40865 111787
L40808 111844
L40722 111872
L40579 111872
" />
<path d="M41179 111815
L41208 111844
L41179 111872
L41151 111844
L41179 111815
L41179 111872
" />
<path d="M41437 111701
L41722 111701
" />
<path d="M41379 111872
L41579 111272
L41779 111872
" />
<path d="M41979 111815
L42008 111844
L41979 111872
L41951 111844
L41979 111815
L41979 111872
" />
<path d="M70272 110672
L70108 110387
" />
<path d="M69930 110672
L70005 110072
L70233 110072
L70287 110101
L70312 110130
L70333 110187
L70322 110272
L70287 110330
L70255 110358
L70194 110387
L69965 110387
" />
<path d="M70762 110644
L70701 110672
L70587 110672
L70533 110644
L70512 110587
L70540 110358
L70576 110301
L70637 110272
L70751 110272
L70805 110301
L70826 110358
L70819 110415
L70526 110472
" />
<path d="M71037 110272
L71130 110672
L71322 110272
" />
<path d="M71508 110615
L71533 110644
L71501 110672
L71476 110644
L71508 110615
L71501 110672
" />
<path d="M71547 110301
L71572 110330
L71540 110358
L71515 110330
L71547 110301
L71540 110358
" />
<path d="M72558 110672
L72215 110672
" />
<path d="M72387 110672
L72462 110072
L72394 110158
L72330 110215
L72269 110244
" />
<path d="M72822 110615
L72847 110644
L72815 110672
L72790 110644
L72822 110615
L72815 110672
" />
<path d="M73290 110072
L73347 110072
L73401 110101
L73426 110130
L73447 110187
L73462 110301
L73444 110444
L73401 110558
L73365 110615
L73333 110644
L73272 110672
L73215 110672
L73162 110644
L73137 110615
L73115 110558
L73101 110444
L73119 110301
L73162 110187
L73197 110130
L73230 110101
L73290 110072
" />
<path d="M36694 110644
L36780 110672
L36922 110672
L36980 110644
L37008 110615
L37037 110558
L37037 110501
L37008 110444
L36980 110415
L36922 110387
L36808 110358
L36751 110330
L36722 110301
L36694 110244
L36694 110187
L36722 110130
L36751 110101
L36808 110072
L36951 110072
L37037 110101
" />
<path d="M37294 110672
L37294 110272
" />
<path d="M37294 110072
L37265 110101
L37294 110130
L37322 110101
L37294 110072
L37294 110130
" />
<path d="M37522 110272
L37837 110272
L37522 110672
L37837 110672
" />
<path d="M38294 110644
L38237 110672
L38122 110672
L38065 110644
L38037 110587
L38037 110358
L38065 110301
L38122 110272
L38237 110272
L38294 110301
L38322 110358
L38322 110415
L38037 110472
" />
<path d="M38580 110615
L38608 110644
L38580 110672
L38551 110644
L38580 110615
L38580 110672
" />
<path d="M38580 110301
L38608 110330
L38580 110358
L38551 110330
L38580 110301
L38580 110358
" />
<path d="M39322 110072
L39322 110558
L39351 110615
L39380 110644
L39437 110672
L39551 110672
L39608 110644
L39637 110615
L39665 110558
L39665 110072
" />
<path d="M39922 110644
L39980 110672
L40094 110672
L40151 110644
L40180 110587
L40180 110558
L40151 110501
L40094 110472
L40008 110472
L39951 110444
L39922 110387
L39922 110358
L39951 110301
L40008 110272
L40094 110272
L40151 110301
" />
<path d="M40665 110644
L40608 110672
L40494 110672
L40437 110644
L40408 110587
L40408 110358
L40437 110301
L40494 110272
L40608 110272
L40665 110301
L40694 110358
L40694 110415
L40408 110472
" />
<path d="M40951 110672
L40951 110272
" />
<path d="M40951 110387
L40980 110330
L41008 110301
L41065 110272
L41122 110272
" />
<path d="M69922 111872
L69922 111272
" />
<path d="M70465 111872
L70465 111272
" />
<path d="M70465 111844
L70408 111872
L70294 111872
L70237 111844
L70208 111815
L70180 111758
L70180 111587
L70208 111530
L70237 111501
L70294 111472
L70408 111472
L70465 111501
" />
<path d="M70751 111815
L70780 111844
L70751 111872
L70722 111844
L70751 111815
L70751 111872
" />
<path d="M70751 111501
L70780 111530
L70751 111558
L70722 111530
L70751 111501
L70751 111558
" />
<path d="M71808 111872
L71465 111872
" />
<path d="M71637 111872
L71637 111272
L71579 111358
L71522 111415
L71465 111444
" />
<path d="M72494 111244
L71980 112015
" />
<path d="M73008 111872
L72665 111872
" />
<path d="M72837 111872
L72837 111272
L72779 111358
L72722 111415
L72665 111444
" />
<path d="M36719 108872
L37062 108872
" />
<path d="M36815 109472
L36890 108872
" />
<path d="M37187 109472
L37237 109072
" />
<path d="M37262 108872
L37230 108901
L37255 108930
L37287 108901
L37262 108872
L37255 108930
" />
<path d="M37437 109072
L37665 109072
" />
<path d="M37547 108872
L37483 109387
L37505 109444
L37558 109472
L37615 109472
" />
<path d="M37901 109472
L37847 109444
L37826 109387
L37890 108872
" />
<path d="M38362 109444
L38301 109472
L38187 109472
L38133 109444
L38112 109387
L38140 109158
L38176 109101
L38237 109072
L38351 109072
L38405 109101
L38426 109158
L38419 109215
L38126 109272
" />
<path d="M38651 109415
L38676 109444
L38644 109472
L38619 109444
L38651 109415
L38644 109472
" />
<path d="M38690 109101
L38715 109130
L38683 109158
L38658 109130
L38690 109101
L38683 109158
" />
<path d="M39462 108872
L39401 109358
L39422 109415
L39447 109444
L39501 109472
L39615 109472
L39676 109444
L39708 109415
L39744 109358
L39805 108872
" />
<path d="M40301 109472
L40015 109472
L40090 108872
" />
<path d="M40501 109472
L40576 108872
L40844 109472
L40919 108872
" />
<path d="M41169 108930
L41201 108901
L41262 108872
L41404 108872
L41458 108901
L41483 108930
L41504 108987
L41497 109044
L41458 109130
L41072 109472
L41444 109472
" />
<path d="M41829 109130
L41776 109101
L41751 109072
L41730 109015
L41733 108987
L41769 108930
L41801 108901
L41862 108872
L41976 108872
L42029 108901
L42054 108930
L42076 108987
L42072 109015
L42037 109072
L42004 109101
L41944 109130
L41829 109130
L41769 109158
L41737 109187
L41701 109244
L41687 109358
L41708 109415
L41733 109444
L41787 109472
L41901 109472
L41962 109444
L41994 109415
L42030 109358
L42044 109244
L42022 109187
L41997 109158
L41944 109130
" />
<path d="M42462 108872
L42519 108872
L42572 108901
L42597 108930
L42619 108987
L42633 109101
L42615 109244
L42572 109358
L42537 109415
L42505 109444
L42444 109472
L42387 109472
L42333 109444
L42308 109415
L42287 109358
L42272 109244
L42290 109101
L42333 108987
L42369 108930
L42401 108901
L42462 108872
" />
<path d="M42862 108872
L43233 108872
L43005 109101
L43090 109101
L43144 109130
L43169 109158
L43190 109215
L43172 109358
L43137 109415
L43105 109444
L43044 109472
L42872 109472
L42819 109444
L42794 109415
" />
<path d="M43872 109472
L43947 108872
L44090 108872
L44172 108901
L44222 108958
L44244 109015
L44258 109130
L44247 109215
L44205 109330
L44169 109387
L44105 109444
L44015 109472
L43872 109472
" />
<path d="M44472 109472
L44522 109072
" />
<path d="M44508 109187
L44544 109130
L44576 109101
L44637 109072
L44694 109072
" />
<path d="M44844 109472
L44894 109072
" />
<path d="M44919 108872
L44887 108901
L44912 108930
L44944 108901
L44919 108872
L44912 108930
" />
<path d="M45122 109072
L45215 109472
L45408 109072
" />
<path d="M45819 109444
L45758 109472
L45644 109472
L45590 109444
L45569 109387
L45597 109158
L45633 109101
L45694 109072
L45808 109072
L45862 109101
L45883 109158
L45876 109215
L45583 109272
" />
<path d="M46101 109472
L46151 109072
" />
<path d="M46137 109187
L46172 109130
L46205 109101
L46265 109072
L46322 109072
" />
<path d="M36922 106758
L36722 106758
" />
<path d="M36722 107072
L36722 106472
L37008 106472
" />
<path d="M37237 107072
L37237 106672
" />
<path d="M37237 106472
L37208 106501
L37237 106530
L37265 106501
L37237 106472
L37237 106530
" />
<path d="M37608 107072
L37551 107044
L37522 106987
L37522 106472
" />
<path d="M38065 107044
L38008 107072
L37894 107072
L37837 107044
L37808 106987
L37808 106758
L37837 106701
L37894 106672
L38008 106672
L38065 106701
L38094 106758
L38094 106815
L37808 106872
" />
<path d="M38351 107015
L38380 107044
L38351 107072
L38322 107044
L38351 107015
L38351 107072
" />
<path d="M38351 106701
L38380 106730
L38351 106758
L38322 106730
L38351 106701
L38351 106758
" />
<path d="M39351 106672
L39351 107072
" />
<path d="M39094 106672
L39094 106987
L39122 107044
L39180 107072
L39265 107072
L39322 107044
L39351 107015
" />
<path d="M39722 107072
L39665 107044
L39637 106987
L39637 106472
" />
<path d="M39951 106672
L39951 107072
" />
<path d="M39951 106730
L39980 106701
L40037 106672
L40122 106672
L40180 106701
L40208 106758
L40208 107072
" />
<path d="M40465 106530
L40494 106501
L40551 106472
L40694 106472
L40751 106501
L40780 106530
L40808 106587
L40808 106644
L40780 106730
L40437 107072
L40808 107072
" />
<path d="M41151 106730
L41094 106701
L41065 106672
L41037 106615
L41037 106587
L41065 106530
L41094 106501
L41151 106472
L41265 106472
L41322 106501
L41351 106530
L41380 106587
L41380 106615
L41351 106672
L41322 106701
L41265 106730
L41151 106730
L41094 106758
L41065 106787
L41037 106844
L41037 106958
L41065 107015
L41094 107044
L41151 107072
L41265 107072
L41322 107044
L41351 107015
L41380 106958
L41380 106844
L41351 106787
L41322 106758
L41265 106730
" />
<path d="M41751 106472
L41808 106472
L41865 106501
L41894 106530
L41922 106587
L41951 106701
L41951 106844
L41922 106958
L41894 107015
L41865 107044
L41808 107072
L41751 107072
L41694 107044
L41665 107015
L41637 106958
L41608 106844
L41608 106701
L41637 106587
L41665 106530
L41694 106501
L41751 106472
" />
<path d="M42151 106472
L42522 106472
L42322 106701
L42408 106701
L42465 106730
L42494 106758
L42522 106815
L42522 106958
L42494 107015
L42465 107044
L42408 107072
L42237 107072
L42180 107044
L42151 107015
" />
<path d="M42780 106844
L43237 106844
" />
<path d="M43780 107072
L43780 106472
" />
<path d="M43780 107044
L43722 107072
L43608 107072
L43551 107044
L43522 107015
L43494 106958
L43494 106787
L43522 106730
L43551 106701
L43608 106672
L43722 106672
L43780 106701
" />
<path d="M44065 107072
L44065 106672
" />
<path d="M44065 106787
L44094 106730
L44122 106701
L44180 106672
L44237 106672
" />
<path d="M44437 107072
L44437 106672
" />
<path d="M44437 106472
L44408 106501
L44437 106530
L44465 106501
L44437 106472
L44437 106530
" />
<path d="M44665 106672
L44808 107072
L44951 106672
" />
<path d="M45408 107044
L45351 107072
L45237 107072
L45180 107044
L45151 106987
L45151 106758
L45180 106701
L45237 106672
L45351 106672
L45408 106701
L45437 106758
L45437 106815
L45151 106872
" />
<path d="M45694 107072
L45694 106672
" />
<path d="M45694 106787
L45722 106730
L45751 106701
L45808 106672
L45865 106672
" />
<path d="M46065 107015
L46094 107044
L46065 107072
L46037 107044
L46065 107015
L46065 107072
" />
<path d="M46351 107072
L46351 106472
" />
<path d="M46408 106844
L46580 107072
" />
<path d="M46580 106672
L46351 106901
" />
<path d="M46837 107072
L46837 106672
" />
<path d="M46837 106472
L46808 106501
L46837 106530
L46865 106501
L46837 106472
L46837 106530
" />
<path d="M47380 107044
L47322 107072
L47208 107072
L47151 107044
L47122 107015
L47094 106958
L47094 106787
L47122 106730
L47151 106701
L47208 106672
L47322 106672
L47380 106701
" />
<path d="M47894 107072
L47894 106758
L47865 106701
L47808 106672
L47694 106672
L47637 106701
" />
<path d="M47894 107044
L47837 107072
L47694 107072
L47637 107044
L47608 106987
L47608 106930
L47637 106872
L47694 106844
L47837 106844
L47894 106815
" />
<path d="M48437 107072
L48437 106472
" />
<path d="M48437 107044
L48380 107072
L48265 107072
L48208 107044
L48180 107015
L48151 106958
L48151 106787
L48180 106730
L48208 106701
L48265 106672
L48380 106672
L48437 106701
" />
<path d="M48580 107130
L49037 107130
" />
<path d="M49180 106672
L49180 107272
" />
<path d="M49180 106701
L49237 106672
L49351 106672
L49408 106701
L49437 106730
L49465 106787
L49465 106958
L49437 107015
L49408 107044
L49351 107072
L49237 107072
L49180 107044
" />
<path d="M49980 107044
L49922 107072
L49808 107072
L49751 107044
L49722 107015
L49694 106958
L49694 106787
L49722 106730
L49751 106701
L49808 106672
L49922 106672
L49980 106701
" />
<path d="M50237 107072
L50237 106472
" />
<path d="M50237 106701
L50294 106672
L50408 106672
L50465 106701
L50494 106730
L50522 106787
L50522 106958
L50494 107015
L50465 107044
L50408 107072
L50294 107072
L50237 107044
" />
<path d="M36694 108244
L36780 108272
L36922 108272
L36980 108244
L37008 108215
L37037 108158
L37037 108101
L37008 108044
L36980 108015
L36922 107987
L36808 107958
L36751 107930
L36722 107901
L36694 107844
L36694 107787
L36722 107730
L36751 107701
L36808 107672
L36951 107672
L37037 107701
" />
<path d="M37294 108272
L37294 107672
" />
<path d="M37551 108272
L37551 107958
L37522 107901
L37465 107872
L37380 107872
L37322 107901
L37294 107930
" />
<path d="M38065 108244
L38008 108272
L37894 108272
L37837 108244
L37808 108187
L37808 107958
L37837 107901
L37894 107872
L38008 107872
L38065 107901
L38094 107958
L38094 108015
L37808 108072
" />
<path d="M38580 108244
L38522 108272
L38408 108272
L38351 108244
L38322 108187
L38322 107958
L38351 107901
L38408 107872
L38522 107872
L38580 107901
L38608 107958
L38608 108015
L38322 108072
" />
<path d="M38780 107872
L39008 107872
" />
<path d="M38865 107672
L38865 108187
L38894 108244
L38951 108272
L39008 108272
" />
<path d="M39208 108215
L39237 108244
L39208 108272
L39180 108244
L39208 108215
L39208 108272
" />
<path d="M39208 107901
L39237 107930
L39208 107958
L39180 107930
L39208 107901
L39208 107958
" />
<path d="M36719 105272
L36844 105872
L37119 105272
" />
<path d="M37244 105872
L37294 105472
" />
<path d="M37319 105272
L37287 105301
L37312 105330
L37344 105301
L37319 105272
L37312 105330
" />
<path d="M37790 105844
L37730 105872
L37615 105872
L37562 105844
L37537 105815
L37515 105758
L37537 105587
L37572 105530
L37605 105501
L37665 105472
L37780 105472
L37833 105501
" />
<path d="M38008 105472
L38237 105472
" />
<path d="M38119 105272
L38055 105787
L38076 105844
L38130 105872
L38187 105872
" />
<path d="M38472 105872
L38419 105844
L38394 105815
L38372 105758
L38394 105587
L38430 105530
L38462 105501
L38522 105472
L38608 105472
L38662 105501
L38687 105530
L38708 105587
L38687 105758
L38651 105815
L38619 105844
L38558 105872
L38472 105872
" />
<path d="M38930 105872
L38980 105472
" />
<path d="M38965 105587
L39001 105530
L39033 105501
L39094 105472
L39151 105472
" />
<path d="M39747 105272
L39872 105872
L40147 105272
" />
<path d="M40272 105872
L40322 105472
" />
<path d="M40347 105272
L40315 105301
L40340 105330
L40372 105301
L40347 105272
L40340 105330
" />
<path d="M40644 105872
L40590 105844
L40569 105787
L40633 105272
" />
<path d="M40958 105872
L40905 105844
L40883 105787
L40947 105272
" />
<path d="M41444 105872
L41483 105558
L41462 105501
L41408 105472
L41294 105472
L41233 105501
" />
<path d="M41447 105844
L41387 105872
L41244 105872
L41190 105844
L41169 105787
L41176 105730
L41212 105672
L41272 105644
L41415 105644
L41476 105615
" />
<path d="M41730 105872
L41780 105472
" />
<path d="M41765 105587
L41801 105530
L41833 105501
L41894 105472
L41951 105472
" />
<path d="M42101 105872
L42151 105472
" />
<path d="M42137 105587
L42172 105530
L42205 105501
L42265 105472
L42322 105472
" />
<path d="M42705 105844
L42644 105872
L42530 105872
L42476 105844
L42455 105787
L42483 105558
L42519 105501
L42580 105472
L42694 105472
L42747 105501
L42769 105558
L42762 105615
L42469 105672
" />
<path d="M43244 105872
L43283 105558
L43262 105501
L43208 105472
L43094 105472
L43033 105501
" />
<path d="M43247 105844
L43187 105872
L43044 105872
L42990 105844
L42969 105787
L42976 105730
L43012 105672
L43072 105644
L43215 105644
L43276 105615
" />
<path d="M43615 105872
L43562 105844
L43540 105787
L43605 105272
" />
<path d="M35980 105030
L35980 112230
" />
<path d="M35980 106230
L77980 106230
" />
<path d="M35980 105030
L77980 105030
" />
<path d="M35980 108630
L77980 108630
" />
<path d="M69180 109830
L69180 112230
" />
<path d="M35980 111030
L77980 111030
" />
<path d="M35980 109830
L77980 109830
" />
<path d="M42580 109830
L42580 111030
" />
</g>
<g style="fill:#000000; fill-opacity:0.0; 
stroke:#000000; stroke-width:98.4252; stroke-opacity:1; 
stroke-linecap:round; stroke-linejoin:round;">
<path d="M52915 55408
L52915 55596
L53102 55614
L53083 55596
L53065 55558
L53065 55464
L53083 55427
L53102 55408
L53140 55389
L53233 55389
L53271 55408
L53290 55427
L53308 55464
L53308 55558
L53290 55596
L53271 55614
" />
<path d="M52915 55146
L52915 55108
L52934 55071
L52952 55052
L52990 55033
L53065 55014
L53158 55014
L53233 55033
L53271 55052
L53290 55071
L53308 55108
L53308 55146
L53290 55183
L53271 55202
L53233 55221
L53158 55239
L53065 55239
L52990 55221
L52952 55202
L52934 55183
L52915 55146
" />
<path d="M53290 54827
L53308 54827
L53346 54846
L53365 54865
" />
<path d="M52915 54583
L52915 54546
L52934 54508
L52952 54490
L52990 54471
L53065 54452
L53158 54452
L53233 54471
L53271 54490
L53290 54508
L53308 54546
L53308 54583
L53290 54621
L53271 54640
L53233 54658
L53158 54677
L53065 54677
L52990 54658
L52952 54640
L52934 54621
L52915 54583
" />
<path d="M52915 54208
L52915 54171
L52934 54133
L52952 54115
L52990 54096
L53065 54077
L53158 54077
L53233 54096
L53271 54115
L53290 54133
L53308 54171
L53308 54208
L53290 54246
L53271 54265
L53233 54283
L53158 54302
L53065 54302
L52990 54283
L52952 54265
L52934 54246
L52915 54208
" />
<path d="M52915 53833
L52915 53796
L52934 53758
L52952 53740
L52990 53721
L53065 53702
L53158 53702
L53233 53721
L53271 53740
L53290 53758
L53308 53796
L53308 53833
L53290 53871
L53271 53890
L53233 53908
L53158 53927
L53065 53927
L52990 53908
L52952 53890
L52934 53871
L52915 53833
" />
<path d="M53308 53533
L53046 53533
" />
<path d="M53083 53533
L53065 53515
L53046 53477
L53046 53421
L53065 53383
L53102 53365
L53308 53365
" />
<path d="M53102 53365
L53065 53346
L53046 53308
L53046 53252
L53065 53215
L53102 53196
L53308 53196
" />
<path d="M53308 53008
L53046 53008
" />
<path d="M53083 53008
L53065 52990
L53046 52952
L53046 52896
L53065 52859
L53102 52840
L53308 52840
" />
<path d="M53102 52840
L53065 52821
L53046 52784
L53046 52727
L53065 52690
L53102 52671
L53308 52671
" />
<path d="M52755 63976
L52755 44291
" />
<path d="M51181 63976
L53543 63976
" />
<path d="M51181 44291
L53543 44291
" />
<path d="M52755 44291
L52986 44734
" />
<path d="M52755 44291
L52525 44734
" />
<path d="M52755 63976
L52986 63532
" />
<path d="M52755 63976
L52525 63532
" />
<path d="M39473 66301
L39285 66301
L39266 66488
L39285 66469
L39323 66451
L39416 66451
L39454 66469
L39473 66488
L39491 66526
L39491 66619
L39473 66657
L39454 66676
L39416 66694
L39323 66694
L39285 66676
L39266 66657
" />
<path d="M39735 66301
L39773 66301
L39810 66319
L39829 66338
L39848 66376
L39866 66451
L39866 66544
L39848 66619
L39829 66657
L39810 66676
L39773 66694
L39735 66694
L39698 66676
L39679 66657
L39660 66619
L39641 66544
L39641 66451
L39660 66376
L39679 66338
L39698 66319
L39735 66301
" />
<path d="M40054 66676
L40054 66694
L40035 66732
L40016 66751
" />
<path d="M40298 66301
L40335 66301
L40373 66319
L40391 66338
L40410 66376
L40429 66451
L40429 66544
L40410 66619
L40391 66657
L40373 66676
L40335 66694
L40298 66694
L40260 66676
L40241 66657
L40223 66619
L40204 66544
L40204 66451
L40223 66376
L40241 66338
L40260 66319
L40298 66301
" />
<path d="M40673 66301
L40710 66301
L40748 66319
L40766 66338
L40785 66376
L40804 66451
L40804 66544
L40785 66619
L40766 66657
L40748 66676
L40710 66694
L40673 66694
L40635 66676
L40616 66657
L40598 66619
L40579 66544
L40579 66451
L40598 66376
L40616 66338
L40635 66319
L40673 66301
" />
<path d="M41047 66301
L41085 66301
L41122 66319
L41141 66338
L41160 66376
L41179 66451
L41179 66544
L41160 66619
L41141 66657
L41122 66676
L41085 66694
L41047 66694
L41010 66676
L40991 66657
L40973 66619
L40954 66544
L40954 66451
L40973 66376
L40991 66338
L41010 66319
L41047 66301
" />
<path d="M41347 66694
L41347 66432
" />
<path d="M41347 66469
L41366 66451
L41404 66432
L41460 66432
L41497 66451
L41516 66488
L41516 66694
" />
<path d="M41516 66488
L41535 66451
L41572 66432
L41629 66432
L41666 66451
L41685 66488
L41685 66694
" />
<path d="M41872 66694
L41872 66432
" />
<path d="M41872 66469
L41891 66451
L41929 66432
L41985 66432
L42022 66451
L42041 66488
L42041 66694
" />
<path d="M42041 66488
L42060 66451
L42097 66432
L42154 66432
L42191 66451
L42210 66488
L42210 66694
" />
<path d="M50590 66141
L30905 66141
" />
<path d="M50590 64960
L50590 66929
" />
<path d="M30905 64960
L30905 66929
" />
<path d="M30905 66141
L31349 65910
" />
<path d="M30905 66141
L31349 66372
" />
<path d="M50590 66141
L50147 65910
" />
<path d="M50590 66141
L50147 66372
" />
</g>
<g style="fill:#000000; fill-opacity:0.0; 
stroke:#000000; stroke-width:59.0551; stroke-opacity:1; 
stroke-linecap:round; stroke-linejoin:round;">
<path d="M30905 63976
L50590 63976
" />
<path d="M30905 44291
L30905 63976
" />
<path d="M50590 44291
L30905 44291
" />
<path d="M50590 44291
L50590 63976
" />
</g>
<g style="fill:#000000; fill-opacity:0.0; 
stroke:#000000; stroke-width:120; stroke-opacity:1; 
stroke-linecap:round; stroke-linejoin:round;">
<path d="M48769 56738
L48769 56138
" />
<path d="M49112 56738
L48855 56396
" />
<path d="M49112 56138
L48769 56481
" />
<path d="M49684 56738
L49341 56738
" />
<path d="M49512 56738
L49512 56138
L49455 56224
L49398 56281
L49341 56310
" />
<path d="M47369 54576
L47398 54491
L47426 54462
L47483 54433
L47569 54433
L47626 54462
L47655 54491
L47683 54548
L47683 54776
L47083 54776
L47083 54576
L47112 54519
L47140 54491
L47198 54462
L47255 54462
L47312 54491
L47340 54519
L47369 54576
L47369 54776
" />
<path d="M47512 54205
L47512 53919
" />
<path d="M47683 54262
L47083 54062
L47683 53862
" />
<path d="M47083 53748
L47083 53405
" />
<path d="M47683 53576
L47083 53576
" />
<path d="M36761 64612
L36761 64012
L36990 64012
L37047 64041
L37076 64070
L37104 64127
L37104 64212
L37076 64270
L37047 64298
L36990 64327
L36761 64327
" />
<path d="M37676 64612
L37333 64612
" />
<path d="M37504 64612
L37504 64012
L37447 64098
L37390 64155
L37333 64184
" />
<path d="M37447 61033
L36847 61033
" />
<path d="M37447 60747
L36847 60747
L37447 60404
L36847 60404
" />
<path d="M37447 59804
L37447 60147
" />
<path d="M37447 59975
L36847 59975
L36933 60033
L36990 60090
L37019 60147
" />
<path d="M39124 64612
L39124 64012
L39352 64012
L39409 64041
L39438 64070
L39466 64127
L39466 64212
L39438 64270
L39409 64298
L39352 64327
L39124 64327
" />
<path d="M39695 64070
L39724 64041
L39781 64012
L39924 64012
L39981 64041
L40009 64070
L40038 64127
L40038 64184
L40009 64270
L39666 64612
L40038 64612
" />
<path d="M39809 61033
L39209 61033
" />
<path d="M39809 60747
L39209 60747
L39809 60404
L39209 60404
" />
<path d="M39266 60147
L39238 60118
L39209 60061
L39209 59918
L39238 59861
L39266 59833
L39324 59804
L39381 59804
L39466 59833
L39809 60175
L39809 59804
" />
<path d="M41486 64612
L41486 64012
L41714 64012
L41771 64041
L41800 64070
L41829 64127
L41829 64212
L41800 64270
L41771 64298
L41714 64327
L41486 64327
" />
<path d="M42029 64012
L42400 64012
L42200 64241
L42286 64241
L42343 64270
L42371 64298
L42400 64355
L42400 64498
L42371 64555
L42343 64584
L42286 64612
L42114 64612
L42057 64584
L42029 64555
" />
<path d="M42171 61033
L41571 61033
" />
<path d="M42171 60747
L41571 60747
L42171 60404
L41571 60404
" />
<path d="M41571 60175
L41571 59804
L41800 60004
L41800 59918
L41829 59861
L41857 59833
L41914 59804
L42057 59804
L42114 59833
L42143 59861
L42171 59918
L42171 60090
L42143 60147
L42114 60175
" />
<path d="M43848 64612
L43848 64012
L44077 64012
L44134 64041
L44162 64070
L44191 64127
L44191 64212
L44162 64270
L44134 64298
L44077 64327
L43848 64327
" />
<path d="M44705 64212
L44705 64612
" />
<path d="M44562 63984
L44419 64412
L44791 64412
" />
<path d="M44534 61033
L43934 61033
" />
<path d="M44534 60747
L43934 60747
L44534 60404
L43934 60404
" />
<path d="M44134 59861
L44534 59861
" />
<path d="M43905 60004
L44334 60147
L44334 59775
" />
<path d="M36761 44140
L36761 43540
L36990 43540
L37047 43569
L37076 43597
L37104 43654
L37104 43740
L37076 43797
L37047 43826
L36990 43854
L36761 43854
" />
<path d="M37647 43540
L37361 43540
L37333 43826
L37361 43797
L37419 43769
L37561 43769
L37619 43797
L37647 43826
L37676 43883
L37676 44026
L37647 44083
L37619 44111
L37561 44140
L37419 44140
L37361 44111
L37333 44083
" />
<path d="M36847 49114
L36847 48999
L36876 48942
L36933 48885
L37047 48856
L37247 48856
L37361 48885
L37419 48942
L37447 48999
L37447 49114
L37419 49171
L37361 49228
L37247 49256
L37047 49256
L36933 49228
L36876 49171
L36847 49114
" />
<path d="M36847 48599
L37333 48599
L37390 48571
L37419 48542
L37447 48485
L37447 48371
L37419 48314
L37390 48285
L37333 48256
L36847 48256
" />
<path d="M36847 48056
L36847 47714
" />
<path d="M37447 47885
L36847 47885
" />
<path d="M37447 47199
L37447 47542
" />
<path d="M37447 47371
L36847 47371
L36933 47428
L36990 47485
L37019 47542
" />
<path d="M39124 44140
L39124 43540
L39352 43540
L39409 43569
L39438 43597
L39466 43654
L39466 43740
L39438 43797
L39409 43826
L39352 43854
L39124 43854
" />
<path d="M39981 43540
L39866 43540
L39809 43569
L39781 43597
L39724 43683
L39695 43797
L39695 44026
L39724 44083
L39752 44111
L39809 44140
L39924 44140
L39981 44111
L40009 44083
L40038 44026
L40038 43883
L40009 43826
L39981 43797
L39924 43769
L39809 43769
L39752 43797
L39724 43826
L39695 43883
" />
<path d="M39209 49114
L39209 48999
L39238 48942
L39295 48885
L39409 48856
L39609 48856
L39724 48885
L39781 48942
L39809 48999
L39809 49114
L39781 49171
L39724 49228
L39609 49256
L39409 49256
L39295 49228
L39238 49171
L39209 49114
" />
<path d="M39209 48599
L39695 48599
L39752 48571
L39781 48542
L39809 48485
L39809 48371
L39781 48314
L39752 48285
L39695 48256
L39209 48256
" />
<path d="M39209 48056
L39209 47714
" />
<path d="M39809 47885
L39209 47885
" />
<path d="M39266 47542
L39238 47514
L39209 47456
L39209 47314
L39238 47256
L39266 47228
L39324 47199
L39381 47199
L39466 47228
L39809 47571
L39809 47199
" />
<path d="M41486 44140
L41486 43540
L41714 43540
L41771 43569
L41800 43597
L41829 43654
L41829 43740
L41800 43797
L41771 43826
L41714 43854
L41486 43854
" />
<path d="M42029 43540
L42429 43540
L42171 44140
" />
<path d="M41571 49114
L41571 48999
L41600 48942
L41657 48885
L41771 48856
L41971 48856
L42086 48885
L42143 48942
L42171 48999
L42171 49114
L42143 49171
L42086 49228
L41971 49256
L41771 49256
L41657 49228
L41600 49171
L41571 49114
" />
<path d="M41571 48599
L42057 48599
L42114 48571
L42143 48542
L42171 48485
L42171 48371
L42143 48314
L42114 48285
L42057 48256
L41571 48256
" />
<path d="M41571 48056
L41571 47714
" />
<path d="M42171 47885
L41571 47885
" />
<path d="M41571 47571
L41571 47199
L41800 47399
L41800 47314
L41829 47256
L41857 47228
L41914 47199
L42057 47199
L42114 47228
L42143 47256
L42171 47314
L42171 47485
L42143 47542
L42114 47571
" />
<path d="M43848 44140
L43848 43540
L44077 43540
L44134 43569
L44162 43597
L44191 43654
L44191 43740
L44162 43797
L44134 43826
L44077 43854
L43848 43854
" />
<path d="M44534 43797
L44477 43769
L44448 43740
L44419 43683
L44419 43654
L44448 43597
L44477 43569
L44534 43540
L44648 43540
L44705 43569
L44734 43597
L44762 43654
L44762 43683
L44734 43740
L44705 43769
L44648 43797
L44534 43797
L44477 43826
L44448 43854
L44419 43911
L44419 44026
L44448 44083
L44477 44111
L44534 44140
L44648 44140
L44705 44111
L44734 44083
L44762 44026
L44762 43911
L44734 43854
L44705 43826
L44648 43797
" />
<path d="M43934 49114
L43934 48999
L43962 48942
L44019 48885
L44134 48856
L44334 48856
L44448 48885
L44505 48942
L44534 48999
L44534 49114
L44505 49171
L44448 49228
L44334 49256
L44134 49256
L44019 49228
L43962 49171
L43934 49114
" />
<path d="M43934 48599
L44419 48599
L44477 48571
L44505 48542
L44534 48485
L44534 48371
L44505 48314
L44477 48285
L44419 48256
L43934 48256
" />
<path d="M43934 48056
L43934 47714
" />
<path d="M44534 47885
L43934 47885
" />
<path d="M44134 47256
L44534 47256
" />
<path d="M43905 47399
L44334 47542
L44334 47171
" />
</g>
<g style="fill:#000000; fill-opacity:0.0; 
stroke:#000000; stroke-width:113; stroke-opacity:1; 
stroke-linecap:round; stroke-linejoin:round;">
</g>
<g style="fill:#000000; fill-opacity:0.0; 
stroke:#000000; stroke-width:112.5; stroke-opacity:1; 
stroke-linecap:round; stroke-linejoin:round;">
<path d="M36468 51217
L36468 51703
L36489 51760
L36511 51789
L36553 51817
L36639 51817
L36682 51789
L36703 51760
L36725 51703
L36725 51217
" />
<path d="M37175 51817
L36918 51817
" />
<path d="M37046 51817
L37046 51217
L37003 51303
L36961 51360
L36918 51389
" />
</g>
<g style="fill:#000000; fill-opacity:0.0; 
stroke:#000000; stroke-width:113; stroke-opacity:1; 
stroke-linecap:round; stroke-linejoin:round;">
</g>
<g style="fill:#000000; fill-opacity:0.0; 
stroke:#000000; stroke-width:112.5; stroke-opacity:1; 
stroke-linecap:round; stroke-linejoin:round;">
<path d="M42297 56335
L42297 56821
L42318 56878
L42340 56907
L42382 56935
L42468 56935
L42511 56907
L42532 56878
L42554 56821
L42554 56335
" />
<path d="M42982 56935
L42768 56935
L42768 56335
" />
<path d="M43132 56935
L43132 56335
L43390 56935
L43390 56335
" />
<path d="M43582 56392
L43604 56364
L43647 56335
L43754 56335
L43797 56364
L43818 56392
L43840 56450
L43840 56507
L43818 56592
L43561 56935
L43840 56935
" />
<path d="M44097 56592
L44054 56564
L44032 56535
L44011 56478
L44011 56450
L44032 56392
L44054 56364
L44097 56335
L44182 56335
L44225 56364
L44247 56392
L44268 56450
L44268 56478
L44247 56535
L44225 56564
L44182 56592
L44097 56592
L44054 56621
L44032 56650
L44011 56707
L44011 56821
L44032 56878
L44054 56907
L44097 56935
L44182 56935
L44225 56907
L44247 56878
L44268 56821
L44268 56707
L44247 56650
L44225 56621
L44182 56592
" />
<path d="M44547 56335
L44590 56335
L44632 56364
L44654 56392
L44675 56450
L44697 56564
L44697 56707
L44675 56821
L44654 56878
L44632 56907
L44590 56935
L44547 56935
L44504 56907
L44482 56878
L44461 56821
L44440 56707
L44440 56564
L44461 56450
L44482 56392
L44504 56364
L44547 56335
" />
<path d="M44847 56335
L45125 56335
L44975 56564
L45040 56564
L45082 56592
L45104 56621
L45125 56678
L45125 56821
L45104 56878
L45082 56907
L45040 56935
L44911 56935
L44868 56907
L44847 56878
" />
</g>
<g style="fill:#000000; fill-opacity:0.0; 
stroke:#000000; stroke-width:113; stroke-opacity:1; 
stroke-linecap:round; stroke-linejoin:round;">
</g>
<g style="fill:#000000; fill-opacity:0.0; 
stroke:#000000; stroke-width:100; stroke-opacity:1; 
stroke-linecap:round; stroke-linejoin:round;">
<path d="M48625 47405
L48396 47405
" />
<path d="M48510 47405
L48510 47005
L48472 47063
L48434 47101
L48396 47120
" />
<path d="M48796 47405
L48796 47005
L48949 47005
L48987 47025
L49006 47044
L49025 47082
L49025 47139
L49006 47177
L48987 47196
L48949 47215
L48796 47215
" />
<path d="M49196 47405
L49196 47005
" />
<path d="M49387 47405
L49387 47005
L49615 47405
L49615 47005
" />
<path d="M32089 47405
L31861 47405
" />
<path d="M31975 47405
L31975 47005
L31937 47063
L31899 47101
L31861 47120
" />
<path d="M32261 47405
L32261 47005
L32413 47005
L32451 47025
L32470 47044
L32489 47082
L32489 47139
L32470 47177
L32451 47196
L32413 47215
L32261 47215
" />
<path d="M32661 47405
L32661 47005
" />
<path d="M32851 47405
L32851 47005
L33080 47405
L33080 47005
" />
<path d="M32089 61363
L31861 61363
" />
<path d="M31975 61363
L31975 60963
L31937 61020
L31899 61058
L31861 61077
" />
<path d="M32261 61363
L32261 60963
L32413 60963
L32451 60982
L32470 61001
L32489 61039
L32489 61096
L32470 61134
L32451 61153
L32413 61173
L32261 61173
" />
<path d="M32661 61363
L32661 60963
" />
<path d="M32851 61363
L32851 60963
L33080 61363
L33080 60963
" />
<path d="M48625 61363
L48396 61363
" />
<path d="M48510 61363
L48510 60963
L48472 61020
L48434 61058
L48396 61077
" />
<path d="M48796 61363
L48796 60963
L48949 60963
L48987 60982
L49006 61001
L49025 61039
L49025 61096
L49006 61134
L48987 61153
L48949 61173
L48796 61173
" />
<path d="M49196 61363
L49196 60963
" />
<path d="M49387 61363
L49387 60963
L49615 61363
L49615 60963
" />
<path d="M47992 52519
L47992 55747
" />
<path d="M48149 52519
L48149 55747
" />
<path d="M50236 52519
L50236 55747
" />
<path d="M50432 55747
L50432 52519
" />
<path d="M50236 53621
L50432 53621
" />
<path d="M50432 55668
L50236 55668
" />
<path d="M50236 52597
L50432 52597
" />
<path d="M50432 54644
L50236 54644
" />
<path d="M50432 52519
L47992 52519
" />
<path d="M47992 55746
L50432 55746
" />
<path d="M38306 63622
L36102 63622
" />
<path d="M36180 63818
L36180 63622
" />
<path d="M38228 63622
L38228 63818
" />
<path d="M37204 63818
L37204 63622
" />
<path d="M36102 61535
L38306 61535
" />
<path d="M36102 63818
L38306 63818
" />
<path d="M38306 63818
L38306 61378
" />
<path d="M38306 61378
L36102 61378
" />
<path d="M36102 61378
L36102 63818
" />
<path d="M40668 63622
L38464 63622
" />
<path d="M38542 63818
L38542 63622
" />
<path d="M40590 63622
L40590 63818
" />
<path d="M39566 63818
L39566 63622
" />
<path d="M38464 61535
L40668 61535
" />
<path d="M38464 63818
L40668 63818
" />
<path d="M40668 63818
L40668 61378
" />
<path d="M40668 61378
L38464 61378
" />
<path d="M38464 61378
L38464 63818
" />
<path d="M43031 63622
L40827 63622
" />
<path d="M40905 63818
L40905 63622
" />
<path d="M42953 63622
L42953 63818
" />
<path d="M41929 63818
L41929 63622
" />
<path d="M40827 61535
L43031 61535
" />
<path d="M40827 63818
L43031 63818
" />
<path d="M43031 63818
L43031 61378
" />
<path d="M43031 61378
L40827 61378
" />
<path d="M40827 61378
L40827 63818
" />
<path d="M45393 63622
L43189 63622
" />
<path d="M43267 63818
L43267 63622
" />
<path d="M45315 63622
L45315 63818
" />
<path d="M44291 63818
L44291 63622
" />
<path d="M43189 61535
L45393 61535
" />
<path d="M43189 63818
L45393 63818
" />
<path d="M45393 63818
L45393 61378
" />
<path d="M45393 61378
L43189 61378
" />
<path d="M43189 61378
L43189 63818
" />
<path d="M36102 44645
L38306 44645
" />
<path d="M38228 44449
L38228 44645
" />
<path d="M36180 44645
L36180 44449
" />
<path d="M37204 44449
L37204 44645
" />
<path d="M38306 46732
L36102 46732
" />
<path d="M38306 44449
L36102 44449
" />
<path d="M36102 44449
L36102 46889
" />
<path d="M36102 46889
L38306 46889
" />
<path d="M38306 46889
L38306 44449
" />
<path d="M38464 44645
L40668 44645
" />
<path d="M40590 44449
L40590 44645
" />
<path d="M38542 44645
L38542 44449
" />
<path d="M39566 44449
L39566 44645
" />
<path d="M40668 46732
L38464 46732
" />
<path d="M40668 44449
L38464 44449
" />
<path d="M38464 44449
L38464 46889
" />
<path d="M38464 46889
L40668 46889
" />
<path d="M40668 46889
L40668 44449
" />
<path d="M40827 44645
L43031 44645
" />
<path d="M42953 44449
L42953 44645
" />
<path d="M40905 44645
L40905 44449
" />
<path d="M41929 44449
L41929 44645
" />
<path d="M43031 46732
L40827 46732
" />
<path d="M43031 44449
L40827 44449
" />
<path d="M40827 44449
L40827 46889
" />
<path d="M40827 46889
L43031 46889
" />
<path d="M43031 46889
L43031 44449
" />
<path d="M43189 44645
L45393 44645
" />
<path d="M45315 44449
L45315 44645
" />
<path d="M43267 44645
L43267 44449
" />
<path d="M44291 44449
L44291 44645
" />
<path d="M45393 46732
L43189 46732
" />
<path d="M45393 44449
L43189 44449
" />
<path d="M43189 44449
L43189 46889
" />
<path d="M43189 46889
L45393 46889
" />
<path d="M45393 46889
L45393 44449
" />
<path d="M44048 54633
L37448 54633
" />
<path d="M37448 53633
L44048 53633
" />
</g>
<g style="fill:#000000; fill-opacity:0.0; 
stroke:#000000; stroke-width:150; stroke-opacity:1; 
stroke-linecap:round; stroke-linejoin:round;">
<path d="M45248 56133
L36248 56133
" />
<path d="M35848 55433
L45648 55433
" />
<path d="M36248 52133
L45248 52133
" />
<path d="M35848 52833
L45648 52833
" />
</g>
<g style="fill:#000000; fill-opacity:0.0; 
stroke:#000000; stroke-width:100; stroke-opacity:1; 
stroke-linecap:round; stroke-linejoin:round;">
<path d="M36748 54133.9 A500 500 0.0 0 0 36248 53633.9 " />
<path d="M36248 54633.9 A500 500 0.0 0 0 36748 54133.9 " />
</g>
<g style="fill:#000000; fill-opacity:0.0; 
stroke:#000000; stroke-width:150; stroke-opacity:1; 
stroke-linecap:round; stroke-linejoin:round;">
<path d="M36248 54633
L35848 54633
" />
<path d="M36248 53633
L35848 53633
" />
</g>
<g style="fill:#000000; fill-opacity:0.0; 
stroke:#000000; stroke-width:100; stroke-opacity:1; 
stroke-linecap:round; stroke-linejoin:round;">
<path d="M37448 53633
L37448 54633
" />
<path d="M44048 54633
L44048 53633
" />
</g>
<g style="fill:#000000; fill-opacity:0.0; 
stroke:#000000; stroke-width:150; stroke-opacity:1; 
stroke-linecap:round; stroke-linejoin:round;">
<path d="M45248 52133
L45248 56133
" />
<path d="M36248 56133
L36248 52133
" />
<path d="M45648 52833
L45648 55433
" />
<path d="M35848 55433
L35848 52833
" />
<circle cx="49015.7" cy="45866.1" r="900" /> 
<circle cx="32480.3" cy="45866.1" r="900" /> 
<circle cx="32480.3" cy="62401.6" r="900" /> 
<circle cx="49015.7" cy="62401.6" r="900" /> 
</g>
<g style="fill:#000000; fill-opacity:0.0; 
stroke:#000000; stroke-width:787; stroke-opacity:1; 
stroke-linecap:round; stroke-linejoin:round;">
<path d="M49212 55133
L49212 55133
" />
</g>
<g style="fill:#000000; fill-opacity:0.0; 
stroke:#000000; stroke-width:19.685; stroke-opacity:1; 
stroke-linecap:round; stroke-linejoin:round;">
</g>
<g style="fill:#000000; fill-opacity:1.0; 
stroke:#000000; stroke-width:19.685; stroke-opacity:1; 
stroke-linecap:round; stroke-linejoin:round;">
<polyline style="fill-rule:evenodd;"
points="49596,53517
48828,53517
48828,52750
49596,52750
49596,53517
" /> 
</g>
<g style="fill:#000000; fill-opacity:1.0; 
stroke:#000000; stroke-width:787; stroke-opacity:1; 
stroke-linecap:round; stroke-linejoin:round;">
<path d="M49212 54133
L49212 54133
" />
<path d="M36704 62598
L36704 62598
" />
</g>
<g style="fill:#000000; fill-opacity:1.0; 
stroke:#000000; stroke-width:19.685; stroke-opacity:1; 
stroke-linecap:round; stroke-linejoin:round;">
<polyline style="fill-rule:evenodd;"
points="37321,62982
37321,62214
38088,62214
38088,62982
37321,62982
" /> 
</g>
<g style="fill:#000000; fill-opacity:1.0; 
stroke:#000000; stroke-width:787; stroke-opacity:1; 
stroke-linecap:round; stroke-linejoin:round;">
<path d="M39066 62598
L39066 62598
" />
</g>
<g style="fill:#000000; fill-opacity:1.0; 
stroke:#000000; stroke-width:19.685; stroke-opacity:1; 
stroke-linecap:round; stroke-linejoin:round;">
<polyline style="fill-rule:evenodd;"
points="39683,62982
39683,62214
40450,62214
40450,62982
39683,62982
" /> 
</g>
<g style="fill:#000000; fill-opacity:1.0; 
stroke:#000000; stroke-width:787; stroke-opacity:1; 
stroke-linecap:round; stroke-linejoin:round;">
<path d="M41429 62598
L41429 62598
" />
</g>
<g style="fill:#000000; fill-opacity:1.0; 
stroke:#000000; stroke-width:19.685; stroke-opacity:1; 
stroke-linecap:round; stroke-linejoin:round;">
<polyline style="fill-rule:evenodd;"
points="42045,62982
42045,62214
42812,62214
42812,62982
42045,62982
" /> 
</g>
<g style="fill:#000000; fill-opacity:1.0; 
stroke:#000000; stroke-width:787; stroke-opacity:1; 
stroke-linecap:round; stroke-linejoin:round;">
<path d="M43791 62598
L43791 62598
" />
</g>
<g style="fill:#000000; fill-opacity:1.0; 
stroke:#000000; stroke-width:19.685; stroke-opacity:1; 
stroke-linecap:round; stroke-linejoin:round;">
<polyline style="fill-rule:evenodd;"
points="44407,62982
44407,62214
45174,62214
45174,62982
44407,62982
" /> 
</g>
<g style="fill:#000000; fill-opacity:1.0; 
stroke:#000000; stroke-width:787; stroke-opacity:1; 
stroke-linecap:round; stroke-linejoin:round;">
<path d="M37704 45669
L37704 45669
" />
</g>
<g style="fill:#000000; fill-opacity:1.0; 
stroke:#000000; stroke-width:19.685; stroke-opacity:1; 
stroke-linecap:round; stroke-linejoin:round;">
<polyline style="fill-rule:evenodd;"
points="37088,45285
37088,46052
36321,46052
36321,45285
37088,45285
" /> 
</g>
<g style="fill:#000000; fill-opacity:1.0; 
stroke:#000000; stroke-width:787; stroke-opacity:1; 
stroke-linecap:round; stroke-linejoin:round;">
<path d="M40066 45669
L40066 45669
" />
</g>
<g style="fill:#000000; fill-opacity:1.0; 
stroke:#000000; stroke-width:19.685; stroke-opacity:1; 
stroke-linecap:round; stroke-linejoin:round;">
<polyline style="fill-rule:evenodd;"
points="39450,45285
39450,46052
38683,46052
38683,45285
39450,45285
" /> 
</g>
<g style="fill:#000000; fill-opacity:1.0; 
stroke:#000000; stroke-width:787; stroke-opacity:1; 
stroke-linecap:round; stroke-linejoin:round;">
<path d="M42429 45669
L42429 45669
" />
</g>
<g style="fill:#000000; fill-opacity:1.0; 
stroke:#000000; stroke-width:19.685; stroke-opacity:1; 
stroke-linecap:round; stroke-linejoin:round;">
<polyline style="fill-rule:evenodd;"
points="41812,45285
41812,46052
41045,46052
41045,45285
41812,45285
" /> 
</g>
<g style="fill:#000000; fill-opacity:1.0; 
stroke:#000000; stroke-width:787; stroke-opacity:1; 
stroke-linecap:round; stroke-linejoin:round;">
<path d="M44791 45669
L44791 45669
" />
</g>
<g style="fill:#000000; fill-opacity:1.0; 
stroke:#000000; stroke-width:19.685; stroke-opacity:1; 
stroke-linecap:round; stroke-linejoin:round;">
<polyline style="fill-rule:evenodd;"
points="44174,45285
44174,46052
43407,46052
43407,45285
44174,45285
" /> 
</g>
<g style="fill:#000000; fill-opacity:1.0; 
stroke:#000000; stroke-width:591; stroke-opacity:1; 
stroke-linecap:round; stroke-linejoin:round;">
<path d="M36748 55496
L36748 55771
" />
<path d="M37748 55496
L37748 55771
" />
<path d="M38748 55496
L38748 55771
" />
<path d="M39748 55496
L39748 55771
" />
<path d="M40748 55496
L40748 55771
" />
<path d="M41748 55496
L41748 55771
" />
<path d="M42748 55496
L42748 55771
" />
<path d="M43748 55496
L43748 55771
" />
<path d="M44748 55496
L44748 55771
" />
<path d="M44748 52496
L44748 52771
" />
<path d="M43748 52496
L43748 52771
" />
<path d="M42748 52496
L42748 52771
" />
<path d="M41748 52496
L41748 52771
" />
<path d="M40748 52496
L40748 52771
" />
<path d="M39748 52496
L39748 52771
" />
<path d="M38748 52496
L38748 52771
" />
<path d="M37748 52496
L37748 52771
" />
<path d="M36748 52496
L36748 52771
" />
</g>
<g style="fill:#000000; fill-opacity:1.0; 
stroke:#000000; stroke-width:19.685; stroke-opacity:1; 
stroke-linecap:round; stroke-linejoin:round;">
<circle cx="49015.7" cy="45866.1" r="790.157" /> 
<circle cx="32480.3" cy="45866.1" r="790.157" /> 
<circle cx="32480.3" cy="62401.6" r="790.157" /> 
<circle cx="49015.7" cy="62401.6" r="790.157" /> 
</g> 
</svg>
